<mxfile host="65bd71144e">
    <diagram id="IVPxW27uR_jThCZHJsK-" name="Page-1">
        <mxGraphModel dx="799" dy="495" grid="1" gridSize="10" guides="1" tooltips="1" connect="1" arrows="1" fold="1" page="1" pageScale="1" pageWidth="850" pageHeight="1100" math="0" shadow="0">
            <root>
                <mxCell id="0"/>
                <mxCell id="1" parent="0"/>
                <mxCell id="4" value="" style="edgeStyle=none;html=1;" edge="1" parent="1" source="2" target="3">
                    <mxGeometry relative="1" as="geometry">
                        <Array as="points">
                            <mxPoint x="420" y="210"/>
                            <mxPoint x="300" y="210"/>
                        </Array>
                    </mxGeometry>
                </mxCell>
                <mxCell id="2" value="Server-Controller" style="rounded=0;whiteSpace=wrap;html=1;" vertex="1" parent="1">
                    <mxGeometry x="360" y="120" width="120" height="60" as="geometry"/>
                </mxCell>
                <mxCell id="3" value="Server-Connector" style="rounded=0;whiteSpace=wrap;html=1;" vertex="1" parent="1">
                    <mxGeometry x="240" y="240" width="120" height="60" as="geometry"/>
                </mxCell>
            </root>
        </mxGraphModel>
    </diagram>
</mxfile>